# xmcd CD database file
#
# Track frame offsets:
#	150
#	24206
#	38285
#
# Disc length: 694 seconds
#
# Revision: 1
# Processed by: cddbd v1.5.2PL0 Copyright (c) Steve Scherf et al.
# Submitted via: CDex 1.70beta2
#
DISCID=0f02b403
DTITLE=ASIAN KUNG-FU GENERATION - マーチングバンド
DYEAR=2011
DGENRE=Rock
TTITLE0=マーチングバンド
TTITLE1=N2
TTITLE2=オールドスクール
EXTD=YEAR: 2011
EXTT0=
EXTT1=
EXTT2=
PLAYORDER=
